<?xml version="1.0" standalone="no"?>
<!DOCTYPE svg PUBLIC "-//W3C//DTD SVG 20010904//EN"
 "http://www.w3.org/TR/2001/REC-SVG-20010904/DTD/svg10.dtd">
<svg version="1.0" xmlns="http://www.w3.org/2000/svg"
 width="1023.000000pt" height="546.000000pt" viewBox="0 0 1023.000000 546.000000"
 preserveAspectRatio="xMidYMid meet">
<metadata>
Created by potrace 1.16, written by Peter Selinger 2001-2019
</metadata>
<g transform="translate(0.000000,546.000000) scale(0.100000,-0.100000)"
fill="#000000" stroke="none">
<path d="M0 2730 l0 -2730 5115 0 5115 0 0 2730 0 2730 -5115 0 -5115 0 0
-2730z m6175 2220 c-7 -82 -10 -90 -79 -215 -40 -71 -128 -236 -195 -365 -125
-241 -147 -277 -156 -268 -12 11 101 410 187 663 46 136 126 354 135 368 3 5
30 -15 60 -45 l55 -53 -7 -85z m-2000 113 c88 -211 131 -322 208 -538 90 -253
131 -388 124 -408 -5 -15 -49 55 -167 263 -51 91 -136 239 -188 329 -62 106
-98 180 -103 210 -5 25 -11 59 -14 74 -4 24 4 37 47 83 28 30 54 54 58 54 3 0
19 -30 35 -67z m1113 -163 c63 -6 155 -19 205 -30 103 -23 247 -68 247 -78 0
-4 -69 -91 -152 -193 -84 -102 -164 -200 -179 -219 l-25 -33 -70 14 c-84 17
-307 17 -389 0 l-60 -12 -30 37 c-16 21 -99 119 -183 217 l-154 180 56 24 c98
41 277 80 446 96 75 8 180 6 288 -3z m997 -420 c28 -33 73 -98 102 -145 50
-82 123 -253 123 -285 0 -8 -22 -46 -48 -85 -86 -127 -172 -250 -191 -274
l-18 -24 -31 99 c-36 115 -101 251 -164 345 l-45 66 73 116 c39 64 87 146 105
182 19 36 36 65 39 64 3 0 28 -27 55 -59z m-2220 -31 c22 -45 65 -125 96 -177
l56 -96 -54 -81 c-71 -104 -126 -220 -154 -320 -12 -44 -24 -88 -28 -98 -5
-14 -29 15 -107 125 -56 80 -113 165 -128 191 l-28 47 18 52 c23 72 77 179
131 261 45 67 139 177 152 177 4 0 25 -37 46 -81z m5345 -410 c-286 -41 -628
-65 -1280 -89 -322 -11 -1090 -30 -1265 -30 l-110 0 35 35 35 35 555 10 c559
10 1089 25 1385 39 219 11 716 11 645 0z m-7210 -18 c179 -6 534 -17 789 -25
l464 -15 28 -33 c15 -18 28 -37 29 -41 0 -5 -51 -6 -112 -3 -115 7 -828 33
-1638 61 -245 8 -501 20 -570 25 -190 16 -393 39 -399 46 -8 8 1002 -3 1409
-15z m6783 -81 c-123 -25 -556 -71 -743 -79 -373 -18 -705 -31 -1035 -41 -176
-5 -376 -12 -445 -16 l-125 -5 37 37 36 37 314 8 c172 4 511 13 753 19 419 10
1117 37 1160 44 11 2 36 3 55 4 34 0 34 0 -7 -8z m-7033 -25 c256 -8 719 -24
1030 -36 l565 -21 28 -26 c15 -14 27 -30 27 -34 0 -5 -28 -6 -62 -3 -53 5
-1051 40 -1701 60 -141 4 -221 13 -380 41 -111 19 -209 37 -217 39 -8 2 44 2
115 -1 72 -3 339 -11 595 -19z m3496 -335 l-7 -319 61 -13 c33 -6 60 -15 60
-18 0 -6 -343 -152 -345 -147 0 1 2 125 5 275 l5 273 110 135 c60 74 111 134
114 134 2 0 1 -144 -3 -320z m-586 252 c25 -31 73 -89 108 -128 l62 -72 0
-276 c0 -152 -2 -276 -4 -276 -2 0 -53 20 -112 44 -60 24 -139 54 -176 67 -38
13 -68 27 -68 30 0 3 24 11 53 18 28 6 57 15 64 19 9 6 12 89 14 320 1 172 4
312 8 312 3 -1 26 -26 51 -58z m-4015 -202 c31 0 45 -16 286 -336 l254 -337
68 74 c37 41 109 119 159 174 50 55 129 140 176 188 l85 88 96 -3 96 -3 3
-624 c1 -344 -1 -628 -5 -632 -5 -4 -56 -10 -115 -14 l-108 -7 -2 467 -3 468
-173 -209 -172 -209 1 -255 2 -255 -106 -29 c-59 -16 -110 -26 -114 -23 -4 4
-9 134 -11 289 l-5 281 -111 146 c-62 80 -139 183 -171 229 -33 45 -62 82 -65
82 -3 0 -3 -233 -2 -519 l4 -518 -121 -9 -121 -9 -2 759 -3 759 74 -7 c41 -3
89 -6 106 -6z m2057 -256 c2 -58 1 -108 -1 -110 -2 -2 -109 -4 -238 -4 l-233
0 0 -135 c0 -74 0 -138 0 -142 0 -5 86 -6 190 -4 l190 4 0 -100 0 -100 -52 -7
c-29 -3 -101 -6 -159 -6 -59 0 -121 -3 -138 -6 l-31 -6 0 -156 0 -155 220 4
221 4 2 -95 2 -95 -225 -12 c-124 -7 -272 -16 -330 -21 -58 -5 -108 -7 -113
-5 -9 5 -9 1238 0 1247 4 3 161 6 349 6 l343 0 3 -106z m926 -6 l3 -108 -261
0 -260 0 -32 -29 -33 -29 -3 -323 c-3 -345 0 -373 45 -390 13 -5 93 -6 178 -2
l155 6 0 145 0 144 -127 -3 -128 -4 -3 103 -3 102 108 0 c59 0 165 3 236 7
l127 6 0 -346 0 -346 -32 -5 c-51 -7 -505 -31 -579 -30 -89 1 -144 31 -177 97
l-25 47 2 447 c2 484 2 487 59 546 28 30 69 55 112 68 14 4 162 7 330 6 l305
-2 3 -107z m438 102 c56 0 63 -2 70 -22 15 -48 160 -361 255 -552 l99 -198 -2
-175 -3 -176 -58 47 c-63 52 -78 78 -176 298 -32 73 -105 230 -161 348 -56
118 -127 266 -157 329 l-54 114 62 -7 c34 -3 90 -6 125 -6z m1784 -579 c0
-318 -2 -580 -4 -582 -2 -2 -50 -3 -105 -1 l-101 3 0 225 0 224 -162 0 -163 0
-22 -35 c-22 -33 -23 -45 -23 -223 l0 -188 -64 -47 c-35 -25 -69 -53 -76 -62
-7 -8 -16 -15 -21 -15 -4 0 -6 110 -3 245 l4 246 98 116 c53 63 150 185 214
269 l117 153 3 -127 3 -127 48 -3 47 -3 0 258 0 258 105 -3 105 -3 0 -578z
m798 476 l3 -107 -221 0 -220 0 0 -140 0 -140 158 -1 c86 -1 167 -2 180 -2 21
-1 22 -4 22 -105 l0 -104 -177 3 -178 3 0 -140 1 -139 159 -8 c88 -4 184 -10
213 -13 l52 -5 0 -100 0 -99 -32 0 c-29 1 -599 28 -605 29 -2 1 -3 264 -3 586
l0 585 288 3 c158 1 303 2 322 2 l35 -1 3 -107z m812 83 c34 -19 51 -39 75
-84 l30 -60 0 -195 c0 -172 -2 -200 -19 -231 -26 -49 -46 -69 -88 -91 l-38
-19 46 -93 c26 -50 89 -172 141 -270 52 -98 92 -181 89 -184 -9 -9 -276 20
-285 31 -5 6 -52 112 -105 235 -137 317 -109 281 -221 281 l-95 0 0 -261 0
-262 -82 6 c-46 4 -95 7 -110 7 l-28 0 0 611 0 610 323 -3 322 -3 45 -25z
m968 -82 l3 -108 -146 0 -146 0 1 -541 c1 -297 0 -543 -3 -545 -2 -3 -51 1
-108 8 l-104 13 -3 536 -2 535 -123 1 c-67 1 -125 2 -129 2 -5 1 -8 48 -8 106
l0 106 383 -3 382 -3 3 -107z m1036 100 c-4 -7 -25 -39 -46 -70 -71 -105 -209
-331 -320 -523 -61 -104 -151 -259 -200 -343 -50 -84 -88 -155 -86 -157 2 -2
109 -13 238 -24 379 -34 323 -16 437 -143 54 -60 99 -113 101 -117 1 -4 -37
-2 -85 5 -48 7 -245 29 -438 49 -192 20 -402 41 -465 48 l-115 12 -3 32 c-2
23 8 49 36 95 116 185 522 898 522 917 0 8 -72 11 -250 11 l-250 0 -1 90 c-1
50 -2 96 -3 103 -1 6 -1 15 1 20 2 4 213 7 469 7 369 0 464 -3 458 -12z
m-5378 -673 c-25 -81 -126 -458 -126 -470 0 -8 -29 -14 -77 -19 -93 -7 -153
-8 -153 -1 0 3 15 61 34 128 19 67 69 246 111 397 41 151 78 282 82 290 3 9
32 -40 75 -130 l69 -144 -15 -51z m591 259 l182 -67 17 -49 c16 -48 17 -49 52
-46 31 3 37 7 42 33 13 64 23 70 194 134 91 33 173 61 182 61 13 0 11 -7 -12
-37 -43 -58 -180 -220 -256 -302 l-68 -75 0 -162 0 -162 -77 5 c-43 3 -79 6
-80 7 0 0 -4 73 -8 161 l-8 160 -106 111 c-108 113 -251 276 -251 288 0 11 13
7 197 -60z m-161 -129 c49 -55 112 -125 141 -155 103 -110 95 -82 101 -343 l5
-231 -29 19 c-16 10 -52 34 -80 52 l-51 34 -5 193 -5 192 -60 110 c-106 192
-145 270 -126 249 11 -11 60 -65 109 -120z m1024 -261 c0 -3 -11 -21 -23 -42
-13 -20 -47 -81 -76 -134 -29 -54 -57 -98 -62 -98 -5 0 -9 62 -9 140 l0 139
68 3 c65 3 102 0 102 -8z m-680 -635 c155 -36 207 -213 95 -324 -73 -74 -182
-84 -264 -25 -59 43 -84 98 -79 175 6 93 58 153 153 176 42 10 44 10 95 -2z
m-1424 -21 c42 -23 67 -77 58 -125 -8 -40 -51 -90 -84 -95 -17 -3 -11 -13 37
-73 l56 -70 -48 -3 c-55 -4 -66 4 -121 84 -51 74 -64 71 -64 -16 l0 -70 -40 0
-40 0 0 188 c0 104 2 191 4 193 3 2 51 4 108 4 76 -1 111 -5 134 -17z m472 7
c106 -45 152 -166 99 -266 -89 -169 -347 -127 -382 62 -27 145 138 264 283
204z m498 0 c60 -25 81 -115 33 -148 -17 -12 -16 -15 12 -41 22 -21 29 -37 29
-65 0 -83 -52 -111 -210 -111 l-110 0 0 190 0 190 105 0 c70 0 117 -5 141 -15z
m972 7 c18 -2 22 -8 22 -36 0 -35 0 -35 -51 -38 l-51 -3 1 -147 2 -148 -46 0
-45 0 0 150 0 150 -55 0 -55 0 0 33 c0 19 2 36 5 39 5 5 203 4 273 0z m665
-22 c30 -20 67 -66 67 -83 0 -3 -16 -8 -36 -12 -30 -5 -41 -2 -63 18 -51 48
-123 40 -169 -18 -47 -59 -16 -154 57 -176 49 -14 80 -7 114 27 24 24 28 25
61 13 20 -7 36 -17 36 -23 0 -5 -18 -26 -39 -47 -81 -76 -207 -73 -283 8 -36
38 -48 73 -48 142 0 111 85 185 206 178 45 -2 71 -9 97 -27z m420 16 c31 -13
56 -40 70 -78 5 -14 -1 -19 -28 -24 -28 -5 -40 -1 -66 20 -34 29 -84 34 -115
12 -33 -25 -6 -49 76 -67 79 -18 118 -41 138 -83 39 -79 -60 -166 -173 -153
-58 6 -114 35 -130 68 -21 40 -19 46 22 52 30 5 40 2 59 -18 19 -20 33 -25 73
-25 41 0 52 4 62 21 16 31 -3 44 -93 63 -83 19 -122 46 -131 94 -7 39 17 88
55 112 39 24 131 27 181 6z m-853 -181 l0 -185 -40 0 -40 0 0 185 0 185 40 0
40 0 0 -185z m-3062 170 c-7 -7 -708 -95 -1388 -175 -283 -33 -571 -67 -639
-75 -69 -8 -126 -13 -128 -12 -1 2 33 23 75 49 l77 46 230 26 c551 62 1295
129 1560 139 169 6 218 7 213 2z m5455 -26 c111 -11 466 -51 789 -88 l587 -68
62 -47 c35 -25 55 -46 46 -46 -22 0 -370 42 -702 85 -148 19 -430 55 -625 80
-387 50 -769 103 -785 111 -26 12 450 -9 628 -27z m-962 -305 c359 -49 1240
-196 1644 -274 55 -10 201 -38 325 -60 207 -38 273 -52 385 -82 38 -10 39 -11
16 -19 -46 -18 -194 2 -956 130 -738 123 -1075 176 -1425 222 -135 17 -246 33
-248 35 -3 1 67 71 74 74 0 0 83 -12 185 -26z m-4097 -43 l38 -39 -38 -6 c-22
-3 -133 -17 -249 -31 -369 -45 -1182 -154 -1608 -214 -226 -33 -446 -62 -487
-65 l-75 -6 60 20 c195 64 719 162 1350 250 348 49 928 128 950 129 12 1 37
-16 59 -38z m4202 -101 c332 -47 725 -109 1369 -216 160 -27 291 -49 293 -50
6 -3 -32 -74 -40 -74 -5 0 -167 27 -361 60 -588 101 -1485 240 -1545 240 -23
0 -38 10 -66 45 -32 38 -34 45 -18 45 10 0 176 -22 368 -50z m-4168 -23 l-32
-43 -361 -43 c-345 -41 -1027 -129 -1318 -171 -76 -11 -142 -20 -146 -20 -9 0
-36 58 -30 64 6 6 695 101 1274 175 297 38 554 72 570 74 80 11 79 12 43 -36z
m1322 -296 l121 -119 14 -224 c7 -122 16 -295 20 -383 3 -88 8 -171 11 -185 4
-21 -5 -15 -56 35 -76 74 -350 368 -615 660 -110 121 -221 242 -247 270 -26
27 -45 52 -42 56 2 4 154 8 338 8 l334 2 122 -120z m1999 72 c-25 -27 -144
-156 -265 -288 -283 -310 -626 -679 -635 -683 -4 -2 -5 39 -3 90 3 51 9 228
14 393 l8 300 123 118 122 117 341 0 340 0 -45 -47z m-1547 -518 l56 -60 4
-223 4 -223 -123 123 c-76 77 -125 133 -127 148 -3 14 -7 121 -11 238 l-7 214
74 -79 c41 -43 99 -105 130 -138z m545 -16 l-7 -232 -87 -95 c-49 -52 -100
-109 -115 -126 l-27 -31 -1 227 0 226 69 74 c37 40 90 99 117 130 27 32 51 58
53 58 2 0 1 -104 -2 -231z"/>
<path d="M7190 3121 c0 -165 -17 -151 177 -151 l131 0 26 31 c22 26 26 40 26
92 0 34 -5 79 -10 99 -18 62 -35 68 -202 68 l-148 0 0 -139z"/>
<path d="M4965 1946 c-51 -23 -70 -52 -70 -108 0 -44 4 -53 37 -84 30 -27 46
-34 78 -34 51 0 106 46 116 97 17 89 -79 167 -161 129z"/>
<path d="M3944 1916 c-26 -26 -34 -42 -34 -70 0 -49 23 -92 60 -111 82 -42
170 14 170 111 0 28 -8 44 -34 70 -29 29 -41 34 -81 34 -40 0 -52 -5 -81 -34z"/>
</g>
</svg>
